# xmcd
#
# Track frame offsets:
#	150
#	6683
#	44488
#	51691
#	71800
#	117770
#	127292
#	131766
#	148944
#	190714
#	218484
#	225077
#	259724
#
# Disc length: 4103 seconds
#
# Revision: 1
# Processed by: cddbd v1.5.2PL0 Copyright (c) Steve Scherf et al.
# Submitted via: audiograbber 1.83.01
#
DISCID=cd10050d
DTITLE=Verschiedene - Wenn es Rachermannel naablet
DYEAR=2010
DGENRE=Hörbuch
TTITLE0=Wenn es Rachermannel naablet, Erich Lang/Bodo Kommnick/Karl Heinz Pollm
TTITLE0=er
TTITLE1=Schnitzstunde, Gerhard Heilfurth
TTITLE2=Bal is Weihnachten, Walter Springer
TTITLE3=Ne Alwin sei Weihnachtbaamel, Karl Hans Pollmer
TTITLE4=Mettenschicht, Walter Fröbe
TTITLE5=De Weihnachtsgans, Stefan "Saafnlob" Dietrich
TTITLE6=Oh du allerschönstes Märchen, Kurt Adolf Findeisen
TTITLE7=Is Bleigießen,  Stefan "Saafnlob" Dietrich
TTITLE8=De Permett, Max Wenzel
TTITLE9=De Stollnfuhr, Hans Siegert
TTITLE10=Horcht! Horcht!, Karl Hans Pollmer
TTITLE11=Ne Ziehnert-Helm sie Weihnachstbarg, Arthur Günther
TTITLE12=Die Weihnachtsgeschichte, Wenn es Rachermannel nabelt, Karl Hans Pollm
TTITLE12=er/Erich Lang/Gernot Schöne
EXTD=mdr Figaro
EXTT0=
EXTT1=
EXTT2=
EXTT3=
EXTT4=
EXTT5=
EXTT6=
EXTT7=
EXTT8=
EXTT9=
EXTT10=
EXTT11=
EXTT12=
PLAYORDER=
